<svg xmlns="http://www.w3.org/2000/svg" width="187.95" height="62.36" viewBox="0 0 187.95 62.36"><defs><style>.cls-1,.cls-2{fill-rule:evenodd;}.cls-2{fill:#999;}</style></defs><g id="Layer_2" data-name="Layer 2"><g id="TUFTS_LEADERSHIP_INITIATIVE" data-name="TUFTS LEADERSHIP INITIATIVE"><polygon points="165.18 41.51 172.47 41.51 172.47 43.07 166.9 43.07 166.9 45.6 171.83 45.6 171.83 47.16 166.9 47.16 166.9 49.79 172.54 49.79 172.54 51.35 165.18 51.35 165.18 41.51"/><polygon points="153.68 41.51 155.59 41.51 158.56 49.07 161.51 41.51 163.38 41.51 159.29 51.42 157.77 51.42 153.68 41.51"/><rect x="150.05" y="41.51" width="1.71" height="9.85"/><polygon points="143.15 43.11 140.03 43.11 140.03 41.51 148.01 41.51 148.01 43.11 144.89 43.11 144.89 51.35 143.15 51.35 143.15 43.11"/><path d="M135.47,47.44l-1.7-3.94-1.69,3.94Zm-2.47-6h1.6l4.33,9.91H137.1l-1-2.38h-4.65l-1,2.38h-1.77Z"/><rect x="125.04" y="41.51" width="1.71" height="9.85"/><polygon points="118.13 43.11 115.01 43.11 115.01 41.51 123 41.51 123 43.11 119.88 43.11 119.88 51.35 118.13 51.35 118.13 43.11"/><rect x="111.24" y="41.51" width="1.72" height="9.85"/><polygon points="99.92 41.51 101.52 41.51 106.78 48.31 106.78 41.51 108.5 41.51 108.5 51.35 107.05 51.35 101.64 44.35 101.64 51.35 99.92 51.35 99.92 41.51"/><rect x="95.45" y="41.51" width="1.72" height="9.85"/><path d="M184.06,31.34a2.3,2.3,0,0,0,1.56-.5,1.59,1.59,0,0,0,.57-1.27v0a1.54,1.54,0,0,0-.58-1.32,2.44,2.44,0,0,0-1.55-.45h-2v3.56Zm-3.73-5.12h3.88a5.11,5.11,0,0,1,1.56.23,3.49,3.49,0,0,1,1.18.67,3,3,0,0,1,.74,1,3.25,3.25,0,0,1,.26,1.35v0a3.23,3.23,0,0,1-.31,1.46,3.16,3.16,0,0,1-.84,1,3.75,3.75,0,0,1-1.26.64,5.1,5.1,0,0,1-1.53.22h-2v3.17h-1.72Z"/><rect x="175.86" y="26.22" width="1.72" height="9.84"/><polygon points="164.96 26.22 166.68 26.22 166.68 30.31 171.4 30.31 171.4 26.22 173.12 26.22 173.12 36.06 171.4 36.06 171.4 31.91 166.68 31.91 166.68 36.06 164.96 36.06 164.96 26.22"/><path d="M159.31,36.2a6.14,6.14,0,0,1-2.18-.38,6,6,0,0,1-1.93-1.19l1-1.24a6.11,6.11,0,0,0,1.45,1,4,4,0,0,0,1.66.33,2.1,2.1,0,0,0,1.27-.34,1.05,1.05,0,0,0,.47-.9v0a1.21,1.21,0,0,0-.09-.48,1,1,0,0,0-.34-.38,2.6,2.6,0,0,0-.67-.34,10.45,10.45,0,0,0-1.12-.31,11.51,11.51,0,0,1-1.41-.41,4,4,0,0,1-1-.57,2.17,2.17,0,0,1-.63-.81,2.68,2.68,0,0,1-.22-1.15v0a2.63,2.63,0,0,1,.25-1.16,2.78,2.78,0,0,1,.69-.9,3.18,3.18,0,0,1,1.06-.58,4.15,4.15,0,0,1,1.35-.21,5.6,5.6,0,0,1,1.94.31,5.88,5.88,0,0,1,1.63.92l-.93,1.31a5.85,5.85,0,0,0-1.34-.75,3.66,3.66,0,0,0-1.33-.26,1.8,1.8,0,0,0-1.18.34,1,1,0,0,0-.43.83v0a1.27,1.27,0,0,0,.1.5,1,1,0,0,0,.36.4,4.15,4.15,0,0,0,.72.33c.31.1.69.21,1.17.32a11.08,11.08,0,0,1,1.37.44,3.36,3.36,0,0,1,1,.58,2.31,2.31,0,0,1,.6.8,2.54,2.54,0,0,1,.21,1.06v0a2.93,2.93,0,0,1-.26,1.24,2.71,2.71,0,0,1-.72.93,3.28,3.28,0,0,1-1.1.57,4.6,4.6,0,0,1-1.42.2"/><path d="M149.82,31.1a2.25,2.25,0,0,0,1.48-.45,1.44,1.44,0,0,0,.55-1.2v0a1.43,1.43,0,0,0-.53-1.22,2.4,2.4,0,0,0-1.51-.42h-2.53V31.1Zm-4.25-4.88H150a4.87,4.87,0,0,1,1.64.26,3.28,3.28,0,0,1,1.2.73,2.8,2.8,0,0,1,.6.94,3.18,3.18,0,0,1,.21,1.18v0a3.41,3.41,0,0,1-.17,1.09,2.74,2.74,0,0,1-.49.85,2.87,2.87,0,0,1-.74.64,4,4,0,0,1-.94.4l2.65,3.73h-2l-2.42-3.44h-2.18v3.44h-1.71Z"/><polygon points="136.03 26.22 143.32 26.22 143.32 27.78 137.75 27.78 137.75 30.31 142.69 30.31 142.69 31.87 137.75 31.87 137.75 34.5 143.39 34.5 143.39 36.06 136.03 36.06 136.03 26.22"/><path d="M128.58,34.5a4,4,0,0,0,1.41-.24,3.06,3.06,0,0,0,1.07-.7,3,3,0,0,0,.69-1.06,3.39,3.39,0,0,0,.25-1.33v0a3.47,3.47,0,0,0-.25-1.34,3,3,0,0,0-.69-1.06A3.06,3.06,0,0,0,130,28a3.77,3.77,0,0,0-1.41-.26h-1.94V34.5Zm-3.66-8.28h3.68a5.78,5.78,0,0,1,2.11.37,5,5,0,0,1,1.66,1,4.56,4.56,0,0,1,1.08,1.55,5,5,0,0,1,.38,1.93v0a5,5,0,0,1-.38,1.94,4.6,4.6,0,0,1-1.08,1.56,5,5,0,0,1-1.66,1,5.58,5.58,0,0,1-2.11.38h-3.68Z"/><path d="M119.67,32.15,118,28.22l-1.68,3.93Zm-2.48-6h1.6l4.34,9.91H121.3l-1-2.37h-4.66l-1,2.37h-1.77Z"/><polygon points="104.17 26.22 111.45 26.22 111.45 27.78 105.88 27.78 105.88 30.31 110.82 30.31 110.82 31.87 105.88 31.87 105.88 34.5 111.52 34.5 111.52 36.06 104.17 36.06 104.17 26.22"/><polygon points="95.35 26.22 97.07 26.22 97.07 34.5 102.24 34.5 102.24 36.06 95.35 36.06 95.35 26.22"/><path d="M137.36,20.92a6.14,6.14,0,0,1-2.18-.39,5.84,5.84,0,0,1-1.93-1.19l1-1.24a5.82,5.82,0,0,0,1.45.95,4,4,0,0,0,1.66.33,2.17,2.17,0,0,0,1.27-.33,1.08,1.08,0,0,0,.47-.9v0a1.13,1.13,0,0,0-.09-.47.94.94,0,0,0-.34-.39,2.85,2.85,0,0,0-.68-.34,11.59,11.59,0,0,0-1.12-.31,11.86,11.86,0,0,1-1.4-.41,3.72,3.72,0,0,1-1-.56,2.17,2.17,0,0,1-.63-.81,2.73,2.73,0,0,1-.22-1.16v0a2.65,2.65,0,0,1,.94-2.06,3.1,3.1,0,0,1,1.06-.59,4.15,4.15,0,0,1,1.35-.21,5.6,5.6,0,0,1,1.94.32,5.88,5.88,0,0,1,1.63.92l-.93,1.31a5.85,5.85,0,0,0-1.34-.75,3.46,3.46,0,0,0-1.33-.26,1.91,1.91,0,0,0-1.19.33,1,1,0,0,0-.42.83v0a1.27,1.27,0,0,0,.1.5,1,1,0,0,0,.36.39,3.25,3.25,0,0,0,.72.34c.31.1.69.21,1.16.32a12.68,12.68,0,0,1,1.38.43,3.37,3.37,0,0,1,1,.59,2.31,2.31,0,0,1,.6.8,2.51,2.51,0,0,1,.21,1.06v0a2.93,2.93,0,0,1-.26,1.24,2.71,2.71,0,0,1-.72.92,3.09,3.09,0,0,1-1.11.58,4.85,4.85,0,0,1-1.41.2"/><polygon points="127.09 12.54 123.97 12.54 123.97 10.93 131.96 10.93 131.96 12.54 128.83 12.54 128.83 20.78 127.09 20.78 127.09 12.54"/><polygon points="115.33 10.93 122.65 10.93 122.65 12.49 117.05 12.49 117.05 15.21 122.01 15.21 122.01 16.77 117.05 16.77 117.05 20.78 115.33 20.78 115.33 10.93"/><path d="M108.61,20.93a5.28,5.28,0,0,1-1.73-.27,3.61,3.61,0,0,1-1.32-.83,3.69,3.69,0,0,1-.84-1.35,5.41,5.41,0,0,1-.3-1.88V10.93h1.72v5.6a2.92,2.92,0,0,0,.67,2.09,2.36,2.36,0,0,0,1.83.72,2.43,2.43,0,0,0,1.83-.69,2.85,2.85,0,0,0,.66-2V10.93h1.72v5.59a5.37,5.37,0,0,1-.31,1.92,3.67,3.67,0,0,1-.85,1.39,3.38,3.38,0,0,1-1.33.83,5.31,5.31,0,0,1-1.75.27"/><polygon points="97.77 12.54 94.65 12.54 94.65 10.93 102.64 10.93 102.64 12.54 99.52 12.54 99.52 20.78 97.77 20.78 97.77 12.54"/><rect x="81.37" width="0.82" height="62.36"/><polygon class="cls-1" points="63.94 33.12 63.94 48.55 3.16 48.55 3.16 13.72 36.23 13.72 44.54 13.72 44.54 10.56 36.23 10.56 0 10.56 0 51.71 67.1 51.71 67.1 33.12 63.94 33.12"/><polygon class="cls-2" points="67.1 10.56 60.03 10.56 48.15 10.56 48.15 13.72 59.75 13.72 63.94 13.72 63.94 29.51 67.1 29.51 67.1 13.72 67.1 10.56"/><rect x="51.76" y="18.17" width="3.44" height="25.94"/><polygon points="30.89 44.11 30.89 18.17 34.33 18.17 34.33 41.06 47.08 41.06 47.08 44.11 30.89 44.11"/><polygon points="15.5 44.11 15.5 21.21 6.95 21.21 6.95 18.17 27.49 18.17 27.49 21.21 18.94 21.21 18.94 44.11 15.5 44.11"/></g></g></svg>